<svg xmlns:xlink="http://www.w3.org/1999/xlink" width="24" height="24" viewBox="0 0 24 24" fill="none" xmlns="http://www.w3.org/2000/svg" class="Hawkins-Icon Hawkins-Icon-Standard"><path fill-rule="evenodd" clip-rule="evenodd" d="M1 3C0.447715 3 0 3.44772 0 4V10.5714V21H2L2 11.5783C4.05836 11.6067 6.06478 11.7223 8 11.9167V14.5714C8 15.042 8.32807 15.4489 8.78794 15.5487C13.0747 16.4789 17.9011 17 23 17C23.5523 17 24 16.5523 24 16V9.42857C24 8.87629 23.5523 8.42857 23 8.42857C20.5907 8.42857 18.2474 8.30904 16 8.08326V5.42857C16 4.95801 15.6719 4.55111 15.2121 4.45132C10.9253 3.52108 6.09885 3 1 3ZM2 9.57813C4.44972 9.61098 6.83093 9.76415 9.11345 10.0248L10 10.126V11.0183V13.7591C13.6576 14.4969 17.7153 14.9341 22 14.9931V10.4219C19.5503 10.389 17.1691 10.2359 14.8866 9.97522L14 9.87399V8.98168V6.24091C10.3424 5.50309 6.2847 5.06594 2 5.00688V9.57813Z" fill="#FFFFFF"></path></svg>