<svg width="24" height="24" viewBox="0 0 24 24" fill="none" xmlns="http://www.w3.org/2000/svg" class="Hawkins-Icon Hawkins-Icon-Standard"><path fill-rule="evenodd" clip-rule="evenodd" d="M17.6427 7.43779C14.5215 4.1874 9.47851 4.1874 6.35734 7.43779C3.21422 10.711 3.21422 16.0341 6.35734 19.3074L4.91474 20.6926C1.02842 16.6454 1.02842 10.0997 4.91474 6.05254C8.823 1.98249 15.177 1.98249 19.0853 6.05254C22.9716 10.0997 22.9716 16.6454 19.0853 20.6926L17.6427 19.3074C20.7858 16.0341 20.7858 10.711 17.6427 7.43779ZM14 14C14 15.1046 13.1046 16 12 16C10.8954 16 10 15.1046 10 14C10 12.8954 10.8954 12 12 12C12.1792 12 12.3528 12.0236 12.518 12.0677L15.7929 8.79289L17.2071 10.2071L13.9323 13.482C13.9764 13.6472 14 13.8208 14 14Z" fill="currentColor"></path></svg>