<svg xmlns:xlink="http://www.w3.org/1999/xlink" xmlns="http://www.w3.org/2000/svg" width="365" height="272"><link xmlns="" type="text/css" rel="stylesheet" id="dark-mode-custom-link"/><link xmlns="" type="text/css" rel="stylesheet" id="dark-mode-general-link"/><style xmlns="" lang="en" type="text/css" id="dark-mode-custom-style"/><style xmlns="" lang="en" type="text/css" id="dark-mode-native-style"/><style xmlns="" lang="en" type="text/css" id="dark-mode-native-sheet"/>
    <defs>
        <symbol id="e">
            <path d="M132.219 72.129c3.3 0 3.644 10.918-2.778 14.746 0 0-.87-14.746 2.778-14.746zm.515 27.676s7.293-5.47 11.2-8.332c0 0 4.425-3.125 4.425-8.856V67.781c0-4.43-4.03-9.246-8.199-9.246h-17.45c-8.198 0-8.98 8.985-8.98 8.985v52.34c0 9.37 7.81 8.85 7.81 8.85h19.269c6.77 0 7.293-8.07 7.293-8.07v-18.222c0 7.027-4.426 12.234-7.293 12.234h-7.29c-3.124 0-4.164-4.164-4.164-4.164v-3.906c0-3.906 3.383-6.77 3.383-6.77"/>
        </symbol>
    </defs>
    <path d="m86.52 30.75-.086 31.07s1.386-2.605 6.421-2.605c5.036 0 14.23-1.215 14.23 7.293v56.933s.349 5.465 4.505 5.465H92.664V76.75c0-4.512-5.543-4.688-5.543 0v47.219s.195 4.945 3.125 4.945H68.023s3.133-2.691 3.133-5.64V54.011s.5-7.637-13.027-7.637l.008 71.691c0 4.34.675 10.844 5.89 10.844H28.965s11.117-1.476 11.117-10.844v-71.69s-17.531-.176-17.531 13.363V30.754h63.965l.004-.004"/>
    <use xlink:href="#e" transform="translate(-3.593 .634)"/>
    <path d="M74.781 178.953c-2.472 2.082-4.297 4.035-4.297 9.899v62.62s-2.734-3.386-5.859-3.386c-3.121 0-1.43 1.691-4.816 1.691H29.996s-6.379 1.172-6.379-16.136V150.84c0-11.324 7.356-13.473 12.625-13.535h109.719l-26.555 17.183H46.762s-3.778-.91-3.778 4.817v68.605c0 5.598 7.422 5.73 7.422 0v-39.055s.36-9.82-3.515-9.82v-.078H74.75l.031-.004"/>
    <path d="M94.883 233.191c0 2.954-4.676 2.782-4.676 0v-35.406c0-2.95 4.676-2.953 4.676 0zm8.558-54.238H81.18s-7.293-1.043-7.293 8.852v53.379s.175 8.59 7.422 8.59h22.136l7.809-8.59v-53.38s1.305-8.85-7.813-8.85m33.075 54.237c0 2.95-4.676 2.778-4.676 0v-35.41c0-2.949 4.676-2.953 4.676 0zm15.324 12.813V137.285l-27.992 17.188c12.629 0 11.59 11.062 11.59 11.062v15.758c0-2.996-4.036-2.348-4.036-2.348h-8.332c-9.242 0-8.332 8.856-8.332 8.856v53.504c0 8.98 7.16 8.46 7.16 8.46h12.239c1.433 0 2.73-.91 2.73-1.953 0 1.301 1.82 1.954 1.82 1.954H153.7c-1.789 0-1.855-3.778-1.855-3.778m40.3-99.058c0-4.426-4.426-9.633-8.594-9.633h-18.84c-8.344 0-9.027 9.633-9.027 9.633v99.984s-.18 2.863-1.91 2.863h23.956s-4.675-2.691-4.675-7.722v-43.57s-.348-2.255 1.039-2.255h2.258l-.012-17.277h-4.156v-25.258c0-3.644 3.296-3.644 3.296 0v16.668l16.668-10.933v-12.5"/>
    <path d="M196.777 232.273c0 3.383-4.683 3.512-4.683 0v-10.671s.258-5.993 4.683-7.555zm15.653 11.91v-55.851c0-8.852-7.16-9.371-9.367-9.371h-19.536c-5.726 0-4.945 8.336-4.945 8.336v14.191c3.254-6.902 6.77-7.808 13.535-7.808 5.598 0 4.426 5.593 1.434 7.289a2310.232 2310.232 0 0 0-7.555 4.293c-9.113 5.207-9.113 11.718-9.113 11.718v23.957c0 8.59 6.64 8.852 6.64 8.852h11.59c2.211 0 3.121 0 3.121-2.086-.129 2.086 2.606 2.086 2.606 2.086h14.191c-3.125 0-2.605-5.598-2.605-5.598m19.746-95.625v28.766c0 1.563.914 1.563 1.566 1.563h1.82v16.402h-2.343s-1.04.004-1.04 1.695v49.727s.13 2.996 1.95 2.996h-14.191c-2.344 0-4.036-.652-4.036-6.38v-77.202s0-5.211-4.168-5.211l20.442-12.363v.008"/>
    <path d="M266.836 178.953c4.168 0 8.594 5.207 8.594 9.633v54.16s.78 7.031 3.906 7.031H258.5v-52.859c0-3.906-5.207-3.906-5.207 0v47.125s-.262 5.73 1.562 5.73h-16.921v-97.62c0-4.767-3.554-5.335-3.554-5.335l18.655-9.505v45.042s1.305-3.386 5.469-3.386h8.332v-.016"/>
    <use xlink:href="#e" transform="translate(164.578 121.252)"/>
    <path d="M236.539 21.652c.261 3.125 1.563 10.028-9.113 19.145-10.672 9.114-19.523 13.406-19.66 23.042-13.676-1.433-18.618-2.081-18.618-2.081L179.254 73.6l27.082 4.165s.39 6.12 5.598 8.074c5.207 1.953 12.11 6.769 12.11 6.769L200.87 113.57l17.97 3.644L242.664 96l12.893 11.063s2.083 1.823 5.47.78c3.383-1.039 6.636-2.472 6.636-2.472s2.082 4.164 2.734 4.945c.653.781 2.75 1.301 4.183.391 2.344-.648 20.809-15.363 23.422-17.574 2.602-2.215 8.072-.653 8.072-.653l13.8 2.344 9.117-14.192-27.469-4.816s-3.902-19.66-4.816-24.472c-.39-2.476 1.692-3.778 1.692-3.778l11.972-11.324-13.406-5.73-6.64 5.336s-1.172.652-2.086-1.297c-.91-1.957-2.083-6.645-2.083-12.895l-7.081.122c0 10.8 2.476 14.45 7.031 20.308 14.191 15.493 10.542 33.195 10.542 33.195s-22.52-3.253-24.344-3.382c-1.824-.133-6.117 2.601-6.117 2.601l-.132 11.973 10.808 2.343c-12.235 17.965-19.265 15.363-20.304 15.23-1.043-.136-9.144-8.064-9.633-10.418-.663-3.183 2.864-24.597 2.864-24.597-1.172-1.172-2.998 3.644-2.998 3.644s-16.92 14.586-20.304 17.45c-6.942-11.067 12.994-23.553 14.117-24.582-4.964-3.224-20.148 16.395-20.11 19.633-4.683-1.047 3.907-21.094 3.907-22.656 0-1.563-1.3-1.039-2.343-.781-1.04.265-3.645 11.718-7.29 21.616-6.769-2.863-3.648-8.07-3.648-8.07s1.566-7.289 2.086-11.453c.52-4.168 3.906-7.554 3.906-7.554s17.18-19.266 21.605-23.953c4.425-4.679 1.833-10.656 1.827-10.669h-3.986zm70.14 20.297v32.29h1.824v-32.29ZM183.77 77.934v57.804h1.825V77.934Zm142.652 10.36v117.75h1.826V88.294Zm-47.355.881c4.293.133 13.802 1.825 13.802 1.825s-3.652 7.03-8.992 10.28c-2.602-1.823-6.103-4.166-11.177-.389.668-4.012 3.292-8.71 6.367-11.716zm27.614 6.935v94.933h1.823V96.11Zm-29.33 4.951c1.317.09 2.5.782 2.94 2.587-3.778 3.516-6.251 4.559-6.251 4.559s-2.472 1.562-1.562-4.946c.115-.83 2.68-2.35 4.874-2.2zm-28.987 4.736v29.941h1.825v-29.941zm29.937 4.88V196.5h1.823v-85.824zm-63.233 8.83v41.153h1.824v-41.152z"/>
    <path d="m314.598 185.777 17.578-10.672v8.2s7.16-11.715 13.93-2.082v16.922c-2.215-5.727-12.11-8.07-12.11.39v41.66c0 6.64 2.606 9.508 5.727 9.508h-27.73c2.085 0 5.339-4.168 5.339-9.508V189.56s.52-3.778-2.734-3.778v-.004"/>
</svg>