<svg xmlns:xlink="http://www.w3.org/1999/xlink" width="24" height="24" viewBox="0 0 24 24" fill="none" xmlns="http://www.w3.org/2000/svg" class="Hawkins-Icon Hawkins-Icon-Standard"><path fill-rule="evenodd" clip-rule="evenodd" d="M11 4C11 3.59554 10.7564 3.2309 10.3827 3.07612C10.009 2.92134 9.57889 3.00689 9.29289 3.29289L4.58579 8H1C0.447715 8 0 8.44771 0 9V15C0 15.5523 0.447715 16 1 16H4.58579L9.29289 20.7071C9.57889 20.9931 10.009 21.0787 10.3827 20.9239C10.7564 20.7691 11 20.4045 11 20V4ZM5.70711 9.70711L9 6.41421V17.5858L5.70711 14.2929L5.41421 14H5H2V10H5H5.41421L5.70711 9.70711ZM16.0001 12C16.0001 10.4087 15.368 8.88259 14.2428 7.75737L12.8285 9.17158C13.5787 9.92173 14.0001 10.9391 14.0001 12C14.0001 13.0609 13.5787 14.0783 12.8285 14.8284L14.2428 16.2427C15.368 15.1174 16.0001 13.5913 16.0001 12Z" fill="#FFFFFF"></path></svg>