<svg xmlns:xlink="http://www.w3.org/1999/xlink" width="24" height="24" viewBox="0 0 24 24" fill="none" xmlns="http://www.w3.org/2000/svg" class="Hawkins-Icon Hawkins-Icon-Standard"><path fill-rule="evenodd" clip-rule="evenodd" d="M11 4.00003C11 3.59557 10.7564 3.23093 10.3827 3.07615C10.009 2.92137 9.57889 3.00692 9.29289 3.29292L4.58579 8.00003H1C0.447715 8.00003 0 8.44774 0 9.00003V15C0 15.5523 0.447715 16 1 16H4.58579L9.29289 20.7071C9.57889 20.9931 10.009 21.0787 10.3827 20.9239C10.7564 20.7691 11 20.4045 11 20V4.00003ZM5.70711 9.70714L9 6.41424V17.5858L5.70711 14.2929L5.41421 14H5H2V10H5H5.41421L5.70711 9.70714ZM17.0709 4.92897C18.9462 6.80433 19.9998 9.34787 19.9998 12C19.9998 14.6522 18.9462 17.1957 17.0709 19.0711L15.6567 17.6569C17.157 16.1566 17.9998 14.1218 17.9998 12C17.9998 9.87831 17.157 7.84347 15.6567 6.34318L17.0709 4.92897ZM14.2428 7.7574C15.368 8.88262 16.0001 10.4087 16.0001 12C16.0001 13.5913 15.368 15.1175 14.2428 16.2427L12.8285 14.8285C13.5787 14.0783 14.0001 13.0609 14.0001 12C14.0001 10.9392 13.5787 9.92176 12.8285 9.17161L14.2428 7.7574Z" fill="#FFFFFF"></path></svg>